<svg width="240" height="180" xmlns="http://www.w3.org/2000/svg">
    <g fill-rule="nonzero" fill="none">
        <circle fill="#EB2E2E" cx="5" cy="78.333" r="1"/>
        <path fill="#F1F1F1" d="M115.556 51.111h68.889v2.222h-68.889z"/>
        <rect fill="#F1F1F1" x="190" width="24.444" height="160" rx="12.222"/>
        <path fill="#F1F1F1" d="M115.556 28.889h68.889v2.222h-68.889zM115.556 6.667h68.889v2.222h-68.889zM115.556 147.778h68.889V150h-68.889zM115.556 125.556h68.889v2.222h-68.889z"/>
        <path d="m58.889 157.778 8.092-3.334.797 1.667s-6.123 1.55-8.89 1.667z" fill="#15577F"/>
        <path d="M47.768 77.659a1.422 1.422 0 0 1 2.004.163l1.624 1.912a1.422 1.422 0 1 1-2.167 1.84l-1.624-1.912a1.422 1.422 0 0 1 .163-2.003z" fill="#FD8254"/>
        <path d="m42.325 98.568 42.14.592a67.408 67.408 0 0 1-.147-18.017c1.425-11.164 10.977-19.522 22.276-19.493 2.7-.04 5.399.16 8.063.6l6.59-1.852c-.741.48 10.457-1.176 22.172 0 0 0 19.666-1.93 29.994-1.424 2.145.102 9.768.857 8.709 3.714-2.05 5.431-12.206 16.722-14.73 31.625-.605 3.692-3.928 6.322-7.675 6.074l-25.42-1.801-7.874 28.08-77.414-3.32s-5.642-7.207-6.572-19.879c-.233-2.6-2.791-4.933-.112-4.899z" fill="#DB8EBA"/>
        <path d="m39.211 115.793-.95-13.778a4.424 4.424 0 0 1 .924-3.1 3.523 3.523 0 0 1 3.94-1.187c3.915 1.056 3.71 18.065 3.71 18.065l79.3 1.895s3.71-15.97 5.14-17.646c1.43-1.677 4.334-4.96 7.006-2.48 2.673 2.48-4.325 20.126-4.53 25.592-.206 5.466 0 7.352-3.093 7.77-3.092.42-90.017 0-90.017 0s-5.345-3.98-1.43-15.13z" fill="#FAD2E9"/>
        <path d="m181.055 60.73.154.147c.8.72 1.163 1.806.956 2.862l-7.393 38.472s1.798 1.203 0 6.402c-1.98 5.698-3.684 11.679-3.684 11.679s1.119 8.043-2.582 10.82L130 130.93s2.728.541 2.918-3.558c.189-4.1.129-9.917.129-9.917s5.508-13.75 4.613-19.36l19.795 1.718a8.372 8.372 0 0 0 8.951-6.772 152.441 152.441 0 0 1 9.812-31.151 3.085 3.085 0 0 1 4.837-1.16z" fill="#F2AFD4"/>
        <path d="M39.384 130h7.283s-17.4 45.71-17.788 45.556c-.389-.157-2.082-.13-2.211-.52-.13-.39 12.716-45.036 12.716-45.036zM70.623 131.111l-9.512 44.445h2.306l14.36-44.445zM126.667 131.18l7.06 44.376h1.829l-2.194-44.445zM161.111 131.146s19.973 43.523 20.61 44.41h1.612s-1.017-4.176-1.137-5.7c-.121-1.524-13.646-38.745-13.646-38.745l-7.439.035zM22.222 177.722h205.556v1H22.222zM111.113 39.145s-.218-2.06 3.547-3.914c3.764-1.854 8.853-.142 10.547 2.144 2.18 2.95 2.515 7.788-3.228 12.625l-7.696-8.311-3.17-2.544z" fill="#6B1F3D"/>
        <path d="M110.156 39.514c-.245 0-1.487 6.579-1.233 9.184.253 2.604-.372 4.174 4.147 3.264 4.518-.91 5.7-1.377 7.795-3.832l.591-1.302c.528-.21.998-.542 1.368-.969.946-1.235.777-5.643-2.272-.835a8.123 8.123 0 0 1-5.143-3.598c-1.909-3.072-1.258-3.648-1.258-3.648a17.094 17.094 0 0 1-3.995 1.736z" fill="#FD8254"/>
        <circle fill="#6B1F3D" cx="126.111" cy="35" r="7.222"/>
        <path d="m120.974 47.778.741 7.838 1.618 2.822-10.936 16.006-1.286-16.767 1.482-.549.52-5.473s5.877-1.563 7.861-3.877z" fill="#FD8254"/>
        <path d="m110.597 57.856 1.42 10.043c-.026.534.35 1.005.88 1.1a1.07 1.07 0 0 0 1.21-.726l8.773-9.651s3.92-.92 11.616 5.71c3.57 3.082 11.06 21.048 11.06 21.048l-12.378 3.787-4.734-10.315a.857.857 0 0 0-1.643.205l-4.734 25.387-28.342-2.697 7.815-23.371-4.742 1.906-7.91-12.375s13.774-11.166 21.709-10.051z" fill="#F6BDC6"/>
        <path d="M106.667 94.418s-30.076-4.888-41.36-6.443c-4.625-.641-12.648-2.564-16.741-.051-2.634 1.623-1.716 10.716-1.845 13.528-.24 6.606 12.305 56.326 12.305 56.326l21.109-8.367-13.841-40.225a33.882 33.882 0 0 1-2.78-7.486c-.438-1.872 8.632 2.478 10.365 3.315l4.29 2.094 28.498-12.69z" fill="#428BC3"/>
        <path d="M80.235 148.889 68.13 153.67l2.187 4.399c.444.908.225 1.999-.536 2.669l-10.891 9.545s.779 1.863 5.026 0c3.117-1.355 13.137-5.08 18.348-7.01a3.34 3.34 0 0 0 1.894-1.768 3.303 3.303 0 0 0 .05-2.58l-3.972-10.036z" fill="#FD8254"/>
        <path d="M107.14 94.444s-30.127 7.027-50.669 32.073c0 0-22.12 24.182-26.471 31.465l16.174 7.574s20.98-28.209 42.835-41.356c9.593-5.778 18.809-6.548 24.884-7.454 9.824-1.461 9.438-13.335 9.438-13.335l-16.191-8.967z" fill="#428BC3"/>
        <path d="m29.73 157.778-4.677 7.083s-29.956 6.07-24.355 8.38c4.464 1.846 21.504 5.332 28.2 6.671a4.68 4.68 0 0 0 4.514-1.623l11.032-13.428-14.715-7.083z" fill="#FD8254"/>
        <path d="M28.338 80.577c4.937.979 16.24 3.396 18.437 3.856.23.047.463-.058.61-.274l2.467-3.68a.88.88 0 0 0 .105-.762c-.084-.257-.278-.441-.508-.48-3.784-.666-15.903-2.77-16.281-2.555-.379.215-3.003 1.478-5.003 2.437-.265.136-.421.467-.38.808.04.34.266.607.553.65z" fill="#373B63"/>
        <path d="M96.667 79.927 90.514 70l-12.766 4.766c.664-.622-7.957 4.898-27.59 5.74-1.558.07-1.762 4.959-5.107 1.13l-1.293-1.455a1.37 1.37 0 0 0-1.41-.411c-.508.148-.891.578-.99 1.112l-1.379-1.533a1.365 1.365 0 0 0-1.768.133 1.468 1.468 0 0 0-.215 1.812l4.757 5.318c.732.587 2.554.789 3.217.877l.681.087a6.847 6.847 0 0 0 1.515.202l32.45-1.831 16.05-6.02z" fill="#FD8254"/>
        <path d="M51.789 130s8.79-9.356 15.989-16.509l-.754-1.269-15.913 14.682.678 3.096zM75.556 133.333s-12.832 11.122-17.778 17.988l.655 2.012s11.995-13.686 17.123-20zM78.714 106.667l16.842-7.778-18.89 6.914z" fill="#2A729E"/>
        <path d="m150.649 98.496-4.432-12.739-12.208 3.883c-2.718-2.251-5.496-3.69-10.544-5.829-3.436-2.277-5.268-3.752-5.91-4.127l-6.711-3.97a1.311 1.311 0 0 0-1.778.535 1.405 1.405 0 0 0 .452 1.856l4.525 2.696a4.102 4.102 0 0 0-.515.114l-2.026-1.205a1.306 1.306 0 0 0-1.815.507c-.366.657-.147 1.497.49 1.875l1.199.725c-.068.148-.135.288-.195.436a1.324 1.324 0 0 0-1.553.813 1.402 1.402 0 0 0 .549 1.709l.844.497a87.556 87.556 0 0 1 9.709 5.872c7.21 5.34 12.097 10.13 18.404 15.017a7.24 7.24 0 0 0 5.808 1.64c2.181-.406 4.077-1.788 5.179-3.777a7.98 7.98 0 0 0 .528-6.528z" fill="#FD8254"/>
        <path d="M88.907 67.778 91.11 70.7l-1.356.41c-.65-1.025-.944-2.179-.848-3.333z" fill="#0D3B56"/>
        <path d="M92.628 81.015s.265-.807.598-.469c.514 1.091.939 2.222 1.272 3.383h4.063s.999-3.114 1.87-3.929c.267.434.447.917.529 1.423 0 .546-.999 3.799 4.865 7.112 5.865 3.314 14.999 2.75 24.158 11.537.188-.79-1.204 2.706-2.791 8.553-1.306 4.805-2.365 9.263-2.305 9.15.06-.112-18.14-.286-18.14-.286s1.947-2.264 3.475-2.87c1.528-.608-1.059-6.558-5.464-10.566-4.404-4.007-10.73-7.121-12.53-16.48a43.127 43.127 0 0 1 .4-6.558zM107.734 117.778a28.01 28.01 0 0 0-3.62 7.772c-.975 3.924-2.837 11.306-7.137 14.132-4.3 2.827-4.795 1.588-4.795 1.588s-1.74.657-.783 1.496c.957.84 4.595 1.123 8.015-1.87 3.42-2.993 4.9-7.207 5.675-10.333.774-3.126 5.1-11.538 6.022-12.752l-3.377-.033z" fill="#6B1F3D"/>
        <path fill="#FDA280" d="M98.889 86.667h1v1.11h-1z"/>
        <path fill="#FDA280" d="M98.908 86.667h1v1.11h-1z"/>
        <path fill="#FDA17F" d="M98.92 86.667h1v1.11h-1z"/>
        <path fill="#FDA17F" d="M98.939 86.667h1v1.11h-1z"/>
        <path fill="#FDA07E" d="M98.95 86.667h1v1.11h-1z"/>
        <path fill="#FD9F7D" d="M98.97 86.667h1v1.11h-1z"/>
        <path fill="#FC9E7C" d="M98.989 86.667h1v1.11h-1z"/>
        <path fill="#FC9E7B" d="M99 86.667h1v1.11h-1z"/>
        <path fill="#FD9D7A" d="M99.02 86.667h1v1.11h-1z"/>
        <path fill="#FD9C79" d="M99.038 86.667h1v1.11h-1z"/>
        <path fill="#FD9B78" d="M99.05 86.667h1v1.11h-1z"/>
        <path fill="#FD9B77" d="M99.07 86.667h1v1.11h-1z"/>
        <path fill="#FD9A76" d="M99.082 86.667h1v1.11h-1z"/>
        <path fill="#FF9975" d="M99.1 86.667h1v1.11h-1z"/>
        <path fill="#FD9874" d="M99.119 86.667h1v1.11h-1z"/>
        <path fill="#FD9873" d="M99.132 86.667h1v1.11h-1z"/>
        <path fill="#FD9772" d="M99.15 86.667h1v1.11h-1z"/>
        <path fill="#FD9671" d="M99.169 86.667h1v1.11h-1z"/>
        <path fill="#FD9570" d="M99.182 86.667h1v1.11h-1z"/>
        <path fill="#FD956F" d="M99.2 86.667h1v1.11h-1z"/>
        <path fill="#FD946E" d="M99.213 86.667h1v1.11h-1z"/>
        <path fill="#FC936E" d="M99.23 86.667h1v1.11h-1z"/>
        <path fill="#FC936C" d="M99.25 86.667h1v1.11h-1z"/>
        <path fill="#FD926B" d="M99.262 86.667h1v1.11h-1z"/>
        <path fill="#FD916A" d="M99.28 86.667h1v1.11h-1z"/>
        <path fill="#FD9069" d="M99.294 86.667h1v1.11h-1z"/>
        <path fill="#FD9068" d="M99.312 86.667h1v1.11h-1z"/>
        <path fill="#FD8F67" d="M99.33 86.667h1v1.11h-1z"/>
        <path fill="#FD8E66" d="M99.343 86.667h1v1.11h-1z"/>
        <path fill="#FF8D65" d="M99.362 86.667h1v1.11h-1z"/>
        <path fill="#FF8D64" d="M99.38 86.667h1v1.11h-1z"/>
        <path fill="#FC8C63" d="M99.393 86.667h1v1.11h-1z"/>
        <path fill="#FD8B61" d="M99.412 86.667h1v1.11h-1z"/>
        <path fill="#FD8A60" d="M99.424 86.667h1v1.11h-1z"/>
        <path fill="#FD8A5F" d="M99.443 86.667h1v1.11h-1z"/>
        <path fill="#FD895E" d="M99.462 86.667h1v1.11h-1z"/>
        <path fill="#FD885E" d="M99.474 86.667h1v1.11h-1z"/>
        <path fill="#FD875D" d="M99.493 86.667h1v1.11h-1z"/>
        <path fill="#FD875B" d="M99.51 86.667h1v1.11h-1z"/>
        <path fill="#FC865A" d="M99.524 86.667h1v1.11h-1z"/>
        <path fill="#FD8559" d="M99.543 86.667h1v1.11h-1z"/>
        <path fill="#FD8458" d="M99.555 86.667h1v1.11h-1z"/>
        <path fill="#FD8457" d="M99.574 86.667h1v1.11h-1z"/>
        <path fill="#FD8356" d="M99.592 86.667h1v1.11h-1z"/>
        <path fill="#FD8255" d="M99.605 86.667h1v1.11h-1z"/>
        <path fill="#FD8254" d="M99.624 86.667h1v1.11h-1z"/>
        <path fill="#FD8153" d="M99.642 86.667h1v1.11h-1z"/>
        <path fill="#FD8052" d="M99.655 86.667h1v1.11h-1z"/>
        <path fill="#FC8051" d="M99.673 86.667h1v1.11h-1z"/>
        <path fill="#FC8051" d="M99.686 86.667h1v1.11h-1z"/>
        <path fill="#FC804F" d="M99.704 86.667h1v1.11h-1z"/>
        <path fill="#FD7F4E" d="M99.723 86.667h1v1.11h-1z"/>
        <path fill="#FD7E4D" d="M99.736 86.667h1v1.11h-1z"/>
        <path fill="#FD7E4C" d="M99.754 86.667h1v1.11h-1z"/>
        <path fill="#FD7D4B" d="M99.767 86.667h1v1.11h-1z"/>
        <path fill="#FD7C4A" d="M99.785 86.667h1v1.11h-1z"/>
        <path fill="#FD7B49" d="M99.804 86.667h1v1.11h-1z"/>
        <path fill="#FD7B48" d="M99.816 86.667h1v1.11h-1z"/>
        <path fill="#FD7A47" d="M99.835 86.667h1v1.11h-1z"/>
        <path fill="#FC7946" d="M99.854 86.667h1v1.11h-1z"/>
        <path fill="#FD7844" d="M99.866 86.667h1v1.11h-1z"/>
        <path fill="#FD7844" d="M99.885 86.667h1v1.11h-1z"/>
        <path fill="#FD7743" d="M99.897 86.667h1v1.11h-1z"/>
        <g>
            <path fill="#FDA280" d="M94.444 86.667h1v1.11h-1z"/>
            <path fill="#FDA280" d="M94.463 86.667h1v1.11h-1z"/>
            <path fill="#FDA17F" d="M94.481 86.667h1v1.11h-1z"/>
            <path fill="#FDA17F" d="M94.493 86.667h1v1.11h-1z"/>
            <path fill="#FDA07E" d="M94.512 86.667h1v1.11h-1z"/>
            <path fill="#FD9F7D" d="M94.524 86.667h1v1.11h-1z"/>
            <path fill="#FC9E7C" d="M94.543 86.667h1v1.11h-1z"/>
            <path fill="#FC9E7B" d="M94.562 86.667h1v1.11h-1z"/>
            <path fill="#FD9D7A" d="M94.574 86.667h1v1.11h-1z"/>
            <path fill="#FD9C79" d="M94.592 86.667h1v1.11h-1z"/>
            <path fill="#FD9B78" d="M94.605 86.667h1v1.11h-1z"/>
            <path fill="#FD9B77" d="M94.623 86.667h1v1.11h-1z"/>
            <path fill="#FD9A76" d="M94.642 86.667h1v1.11h-1z"/>
            <path fill="#FF9975" d="M94.654 86.667h1v1.11h-1z"/>
            <path fill="#FD9874" d="M94.673 86.667h1v1.11h-1z"/>
            <path fill="#FD9873" d="M94.691 86.667h1v1.11h-1z"/>
            <path fill="#FD9772" d="M94.704 86.667h1v1.11h-1z"/>
            <path fill="#FD9671" d="M94.722 86.667h1v1.11h-1z"/>
            <path fill="#FD9570" d="M94.735 86.667h1v1.11h-1z"/>
            <path fill="#FD956F" d="M94.753 86.667h1v1.11h-1z"/>
            <path fill="#FD946E" d="M94.772 86.667h1v1.11h-1z"/>
            <path fill="#FC936E" d="M94.784 86.667h1v1.11h-1z"/>
            <path fill="#FC936C" d="M94.803 86.667h1v1.11h-1z"/>
            <path fill="#FD926B" d="M94.821 86.667h1v1.11h-1z"/>
            <path fill="#FD916A" d="M94.834 86.667h1v1.11h-1z"/>
            <path fill="#FD9069" d="M94.852 86.667h1v1.11h-1z"/>
            <path fill="#FD9068" d="M94.865 86.667h1v1.11h-1z"/>
            <path fill="#FD8F67" d="M94.883 86.667h1v1.11h-1z"/>
            <path fill="#FD8E66" d="M94.902 86.667h1v1.11h-1z"/>
            <path fill="#FF8D65" d="M94.914 86.667h1v1.11h-1z"/>
            <path fill="#FF8D64" d="M94.933 86.667h1v1.11h-1z"/>
            <path fill="#FC8C63" d="M94.951 86.667h1v1.11h-1z"/>
            <path fill="#FD8B61" d="M94.964 86.667h1v1.11h-1z"/>
            <path fill="#FD8A60" d="M94.982 86.667h1v1.11h-1z"/>
            <path fill="#FD8A5F" d="M94.995 86.667h1v1.11h-1z"/>
            <path fill="#FD895E" d="M95.013 86.667h1v1.11h-1z"/>
            <path fill="#FD885E" d="M95.032 86.667h1v1.11h-1z"/>
            <path fill="#FD875D" d="M95.044 86.667h1v1.11h-1z"/>
            <path fill="#FD875B" d="M95.063 86.667h1v1.11h-1z"/>
            <path fill="#FC865A" d="M95.075 86.667h1v1.11h-1z"/>
            <path fill="#FD8559" d="M95.094 86.667h1v1.11h-1z"/>
            <path fill="#FD8458" d="M95.112 86.667h1v1.11h-1z"/>
            <path fill="#FD8457" d="M95.125 86.667h1v1.11h-1z"/>
            <path fill="#FD8356" d="M95.143 86.667h1v1.11h-1z"/>
            <path fill="#FD8255" d="M95.162 86.667h1v1.11h-1z"/>
            <path fill="#FD8254" d="M95.174 86.667h1v1.11h-1z"/>
            <path fill="#FD8153" d="M95.193 86.667h1v1.11h-1z"/>
            <path fill="#FD8052" d="M95.205 86.667h1v1.11h-1z"/>
            <path fill="#FC8051" d="M95.224 86.667h1v1.11h-1z"/>
            <path fill="#FC8051" d="M95.242 86.667h1v1.11h-1z"/>
            <path fill="#FC804F" d="M95.254 86.667h1v1.11h-1z"/>
            <path fill="#FD7F4E" d="M95.273 86.667h1v1.11h-1z"/>
            <path fill="#FD7E4D" d="M95.292 86.667h1v1.11h-1z"/>
            <path fill="#FD7E4C" d="M95.304 86.667h1v1.11h-1z"/>
            <path fill="#FD7D4B" d="M95.322 86.667h1v1.11h-1z"/>
            <path fill="#FD7C4A" d="M95.335 86.667h1v1.11h-1z"/>
            <path fill="#FD7B49" d="M95.353 86.667h1v1.11h-1z"/>
            <path fill="#FD7B48" d="M95.372 86.667h1v1.11h-1z"/>
            <path fill="#FD7A47" d="M95.384 86.667h1v1.11h-1z"/>
            <path fill="#FC7946" d="M95.403 86.667h1v1.11h-1z"/>
            <path fill="#FD7844" d="M95.421 86.667h1v1.11h-1z"/>
            <path fill="#FD7844" d="M95.434 86.667h1v1.11h-1z"/>
            <path fill="#FD7743" d="M95.452 86.667h1v1.11h-1z"/>
        </g>
        <path d="m178.658 156.667 1.717-16.392a42.146 42.146 0 0 0 14.4 3.558l1.323 12.8-17.44.034zm54.566-39.807c-7.423 12.8-20.04 20.385-33.179 21.17a36.132 36.132 0 0 1-5.921-.12 36.81 36.81 0 0 1-12.324-3.353 6.966 6.966 0 0 1-.79-.41 32.644 32.644 0 0 1-5.544-3.412c-13.783-10.155-19.267-29.013-12.702-46.787a.907.907 0 0 1 .532-.555c.095-.032.193-.052.292-.06a.68.68 0 0 1 .326.094l31.18 14.617 5.338 2.51 32.423 15.137c.201.107.357.283.438.495a.849.849 0 0 1-.069.674z" fill="#FAFAFA"/>
        <path d="M239.702 114.66a6.682 6.682 0 0 0-3.524-4.019l-31.623-14.863 3.729-6.257c.459.096.926.145 1.396.145a7.61 7.61 0 1 0-7.593-7.62 7.424 7.424 0 0 0 1.31 4.257l-4.162 6.989L167.74 78.48a6.588 6.588 0 0 0-5.295-.145 6.861 6.861 0 0 0-3.78 3.924c-7.856 21.334-.382 44.173 17.4 55.257l-1.958 19.273h-5.192a8.836 8.836 0 0 0-8.845 8.82v8.146a2.903 2.903 0 0 0 2.911 2.912h51.133a2.878 2.878 0 0 0 2.903-2.912v-8.147a8.827 8.827 0 0 0-8.81-8.819h-5.158l-1.311-12.77c14.845-1.02 29.043-9.602 37.36-24.005a6.751 6.751 0 0 0 .604-5.355zm-36.075 47.986h4.597a2.988 2.988 0 0 1 2.996 2.996v5.236h-45.327v-5.236a3.013 3.013 0 0 1 3.022-2.996h34.712zm-23.69-5.823 1.703-16.353a41.605 41.605 0 0 0 14.284 3.55l1.31 12.769-17.296.034zm54.122-39.712c-7.364 12.77-19.876 20.337-32.909 21.12a35.63 35.63 0 0 1-5.873-.12 36.345 36.345 0 0 1-12.224-3.345 6.895 6.895 0 0 1-.783-.408 32.346 32.346 0 0 1-5.499-3.405c-13.67-10.13-19.11-28.944-12.598-46.676a.902.902 0 0 1 .528-.553c.094-.032.19-.052.29-.06a.672.672 0 0 1 .323.094l30.925 14.548 5.294 2.503 32.16 15.102c.199.107.353.282.434.493a.851.851 0 0 1-.068.673v.034z" fill="#F97973"/>
        <path d="M203.48 163.333h4.62c.8-.002 1.566.296 2.132.827a2.74 2.74 0 0 1 .88 2.005v4.946h-45.556v-4.946c.009-1.57 1.367-2.836 3.037-2.832h34.887z" fill="#F97973"/>
        <path fill="#FAFAFA" d="M158.889 166.667h56.667V170h-56.667z"/>
    </g>
</svg>
