<?xml version="1.0" encoding="utf-8"?>
<!-- Generator: Adobe Illustrator 25.2.1, SVG Export Plug-In . SVG Version: 6.00 Build 0)  -->
<svg version="1.1" id="Layer_1" xmlns="http://www.w3.org/2000/svg" xmlns:xlink="http://www.w3.org/1999/xlink" x="0px" y="0px"
	 viewBox="0 0 300 300" style="enable-background:new 0 0 300 300;" xml:space="preserve">
<style type="text/css">
	.st0{fill:#EFEEEE;}
	.st1{fill:#6B1F3D;}
	.st2{fill:#F6BDC6;}
	.st3{fill:#F97973;}
	.st4{fill:#FFFFFF;}
	.st5{fill:#428BC3;}
	.st6{fill:none;stroke:#606060;stroke-width:0.5;stroke-miterlimit:10;}
	.st7{fill:#FD8254;}
	.st8{fill:none;}
	.st9{fill:#F8BA05;}
</style>
<g>
	<g>
		<path class="st0" d="M131.2,265.5H47.7c-1.2,0-2.1-0.9-2.1-2.1V105.1c0-9.9,4.7-19.1,12.6-25c15.2-11.3,40.4-30.7,52-40.6
			c15.9-13.5,23.1-5.9,23.1,10.3c0,0.2,0,0.4,0,0.7v212.9C133.3,264.5,132.4,265.5,131.2,265.5z"/>
	</g>
	<path class="st1" d="M211.1,44.8c0.4,0.6,0.7,1.2,1,1.8s0.5,1.2,0.5,1.8c0,0.5-0.1,1.1-0.3,1.6c-0.3,1-0.6,1.9-0.9,2.9
		c-0.1,0.5-0.2,0.9-0.1,1.3c0.1,0.4,0.2,0.8,0.2,1.2c0.1,0.8,0.1,1.7,0,2.5c-0.2,1.7-0.5,3.4-0.8,5c-0.2,1.1-0.4,2.1-0.4,3.2
		c-0.1,3,0.7,6,2.4,8.5c0.6,0.9,1.4,1.8,2.4,2.2c0.2,0.1,0.5,0.1,0.7,0.3c0.3,0.2,0.5,0.4,0.8,0.6c0.5,0.4,1,0.7,1.5,1
		c4.9,2.6,6,3.3,10.1,7.1c2.3,2.1,5.7,2.2,8.2,3.9c3.4,2.3,4.5,7,8,9.3c3.1,2.1,7.6,1.5,10.1-1.4c2.4-2.8,2.3-7.4-0.2-10.1
		c-0.8-0.8-1.7-1.5-2.4-2.4c-2.4-3.1-1-7.5,0.3-11.1c1.3-3.7,2.3-8.3-0.5-11c-1.6-1.6-4.1-2-6.3-2.7c-4.8-1.5-8.8-5.1-11-9.7
		c-1.3-2.8-2.1-6.2-4.7-7.9c-2.5-1.6-5.9-1-8.7-2c-2.9-0.9-5-3.2-7-5.3c-0.5-0.6-1.1-1.1-1.7-1.6c-0.7-0.5-1.4-0.8-2.2-1.1
		c-1.5-0.5-3.2-0.6-4.8-0.3c-2,0.3-3.9,1.2-5.6,2.4c-0.4,0.3-0.8,0.7-1.2,0.9s-0.7-0.2-1-0.4c-0.2-0.1-0.3-0.2-0.5-0.3
		c-0.5-0.2-0.9-0.4-1.5-0.4c-1.6,0-3.1,0.4-4.3,1.6c-1.1,1-1.7,2.5-2,3.9c-0.6,3,0.5,6.2,2.6,8.3c0.3,0.3,1,1.1,1.5,1.1
		c0.4,0,0.6-0.7,0.7-1c0.3-0.6,0.6-1.2,1-1.8c0.4-0.7,0.8-1.4,1.3-1.9c0.7-0.7,1.7-1.1,2.6-1.5c0.8-0.3,1.7-0.6,2.5-0.5
		c0.4,0,0.7,0.2,1.1,0.2c0.4,0,0.8,0,1.2,0.1c0.1,0,0.2,0,0.3,0c1,0.1,2,0.2,3,0.4c0.8,0.1,1.4,0.2,2.1-0.1c0.6-0.2,1.1-0.1,1.5,0.4
		C210.8,44.4,211,44.6,211.1,44.8z"/>
	<path class="st2" d="M225.1,70.5l4.3,22.6l4.1,16.3l-36.6-2.4l-4.2-17.2l-0.5-22.6C192.2,67.2,210,63.3,225.1,70.5z"/>
	<g>
		<g>
			<path class="st3" d="M172.1,246.2c0,0,10.5-2.2,20.5,5.5l3-22.9c0.7-5.4-3.5-10.3-9-10.3c-0.6,0-1.2,0-1.9,0.1
				c-5.2,0.3-9.4,4.3-10.1,9.4L172.1,246.2z"/>
		</g>
	</g>
	<g>
		<g>
			<g>
				<path class="st1" d="M156.6,63l-8.3,3.3c-0.9,0.4-1.4,1.3-1.1,2.3l4.6,14.8c0,0,0.7,3.5,4,2c1.9-0.8,4.8-2.1,6.9-3.1
					c1.5-0.7,2.3-2.5,1.7-4L159.3,64C159.4,64,159.1,61.9,156.6,63z"/>
			</g>
		</g>
		<g>
			<g>
				<circle class="st4" cx="150" cy="67.9" r="0.9"/>
			</g>
		</g>
		<g>
			<g>
				<circle class="st4" cx="150.7" cy="69.9" r="0.9"/>
			</g>
		</g>
	</g>
	<g>
		<g>
			<path class="st3" d="M226.8,243.8l1.7-15.7c0,0,0.1-12.8-9.4-12.7s-11.8,11.2-11.8,11.2l-1.8,16.9L226.8,243.8z"/>
		</g>
	</g>
	<g>
		<g>
			<path class="st5" d="M196.9,107.1c0,0-3.5,6.9-4.7,13.5c-3.3,17.5-20,111.9-20,111.9s13.9-4.4,22.9,2.8l15.8-88
				c0.3-1.4,2.3-1.1,2.2,0.3l-7.1,88.3l2.1-1.1c6.3-2.9,13.6-2.6,19.6,0.8l0,0c0,0,10.5-64.7,11.9-87.4c1.7-25.9-6.7-40.3-6.7-40.3
				s-5.2-1.3-17.4-1.3C205.2,106.6,196.9,107.1,196.9,107.1z"/>
		</g>
	</g>
	<g>
		<g>
			<polygon class="st1" points="226.8,243.5 226.8,254.4 203.7,258 205.4,243.5 			"/>
		</g>
	</g>
	<g>
		<g>
			<path class="st1" d="M201.1,263.5c0-8.7,6.4-15.8,14.2-15.8s14.2,7.1,14.2,15.8"/>
		</g>
	</g>
	<g>
		<g>
			<path class="st3" d="M204.5,254l-0.4-0.3c0-0.1,4.6-6.6,15.9-4.5l-0.1,0.5c-5.7-1.1-9.6,0.1-11.8,1.3
				C205.6,252.4,204.5,253.9,204.5,254z"/>
		</g>
	</g>
	<g>
		<g>
			<path class="st1" d="M192.6,251.8l-0.4,12.1l-41.5,0.3c0,0,4.3-18.9,21.5-19.6v-3.4c0,0,12.7-2.8,21.5,3l-1,6.4"/>
		</g>
	</g>
	<g>
		<g>
			<path class="st3" d="M179.1,246.8c-2.5-2.6-6.9-2.3-6.9-2.3V244c0.2,0,4.7-0.3,7.3,2.5L179.1,246.8z"/>
		</g>
	</g>
	<line class="st6" x1="98.1" y1="263.6" x2="255" y2="263.6"/>
	<g>
		<path class="st7" d="M211.7,52.5l2.1,15.7c0,0,1.5,11-5.4,11s-6.8-11-6.8-11l-0.8-10C200.7,58.3,207.9,61,211.7,52.5z"/>
	</g>
	<g>
		<path class="st7" d="M215.4,46.6c0,1.6-1.4,3.1-3,3.2c0.1,2.5-0.7,5-2.4,6.8s-4.2,2.9-6.6,2.7c-2-0.2-3.8-1.2-5.4-2.2
			c-2.6-1.7-5.2-4.2-5.4-7.4c-0.1-2.5,1.3-4.9,1.7-7.5c0.1-0.6,0.6-0.9,1.2-0.7c2.2,0.8,4.9,0.5,7.3,0.5c1.1,0,2.3,0.1,3.4,0.4
			c1,0.3,1.9,0.9,2.9,1.2c0.7,0.3,1.4,0.1,2.1-0.1c1-0.2,2-0.2,2.9,0.4C214.9,44.6,215.4,45.6,215.4,46.6z"/>
	</g>
	<g>
		<g>
			<path class="st4" d="M206.1,52.9c0,0-0.8,3-5.3,3.4l0,0c0.3,0.4,0.7,0.6,1.1,0.5c1.4-0.2,4.2-0.8,4.6-3.6L206.1,52.9z"/>
		</g>
	</g>
	<g>
		<g>
			<path class="st8" d="M160.2,83.1l0.1-0.2C160.2,82.9,160.2,82.9,160.2,83.1C160.1,83,160.1,83.1,160.2,83.1z"/>
			<path class="st7" d="M173.4,104.3c-1.6-2.9-6-9.8-9.8-16c-0.9-1.4-2.8-7.2-2.8-7.2l-1.5-7c-0.2-0.7-0.9-1.2-1.6-1.1
				c-0.6,0.1-1,0.6-1.1,1.2l-0.3-1.5c-0.2-0.7-0.9-1.2-1.6-1.1c-0.7,0.2-1.2,0.9-1.1,1.6l0.2,1.1c-0.3-0.4-0.8-0.6-1.3-0.5
				c-0.7,0.2-1.2,0.9-1.1,1.6l0.3,1.5c-0.2-0.7-0.9-1.1-1.6-1c-1.6,0.3-1.3,2-1.2,2.7l3.1,8.2c4.7,12.6,18.6,46.5,28.7,36.8l0,0
				c2.1-2,2.2-5.3,0.5-7.6C178.3,111.9,173.6,104.6,173.4,104.3z M160.2,83.1c0-0.1-0.1-0.1-0.1-0.2c0.1,0,0.1,0,0.2-0.1L160.2,83.1
				z"/>
		</g>
		<path class="st7" d="M182.5,121.1l10.2-31.2c1.7-4.8-1.9-9.8-7-9.8l0,0c-3,0-5.8,1.8-7,4.5l-0.9,2L173,109l-1.3,4.9
			c-0.8,3.2,0.6,6.7,2.8,8.7C177,124.8,180.9,124,182.5,121.1L182.5,121.1z"/>
	</g>
	<path class="st7" d="M199,66.4l-3.3,0.5c0,0,1.9,20.6,13.2,21.5c17.5,1.3,11.3-19.9,11.3-19.9l-2.7-1.1c-5.5-2.3-11.7-2.7-17.5-1.3
		L199,66.4"/>
	<path class="st2" d="M199,66.4l-4.7,0.4c0,0,1.3,24.3,14.8,24.8c17.5,0.8,14.6-21.7,14.6-21.7l-5.5-2.2
		C215.3,76.2,201.8,77.6,199,66.4L199,66.4"/>
	<path class="st2" d="M177.7,86.6l16.6,3c0,0-0.7-11.5-2.1-22.4C192.2,67.2,181.7,70.2,177.7,86.6z"/>
	<path class="st1" d="M192.7,49c0,0,3.5-5.3,2.7-7.5c0,0,5.5,2.5,10.7,0.9c0,0,3.2,0.9,3.2,2.7c0,0,2.6-2.8,4.8-1.2
		c0,0-5.8-9-9.9-8.3s-10.3,4.3-10.3,4.3S188.9,43.9,192.7,49z"/>
	<g>
		<g>
			<path class="st7" d="M232.5,106.4l-32.7,7.6l0,0c0,0,0,0-0.1,0l-7.4-0.6c-0.7-0.1-1.4,0.5-1.5,1.2s0.5,1.4,1.2,1.5l1.7,0.1
				l-6.4,2.9c-0.7,0.3-1,1.1-0.7,1.8c0.2,0.6,0.8,0.8,1.4,0.8l-1.3,0.6c-0.7,0.3-1,1.1-0.7,1.8s1.1,1,1.8,0.7l1-0.4
				c-0.3,0.4-0.4,0.9-0.2,1.4c0.3,0.7,1.1,1,1.8,0.7l1.4-0.6c-0.6,0.3-0.9,1.1-0.6,1.7c0.6,1.5,2.2,0.8,2.9,0.5l6.9-4.5
				c11.7-1.4,32.8-4.4,32.8-4.4s10.8-1.7,10.8-9.8c0,0,0,0,0-0.1c0-2.8-2.6-4.8-5.4-4.3C235.9,105.7,232.5,106.4,232.5,106.4z"/>
		</g>
		<path class="st7" d="M244.6,109.5c0-0.8-0.1-1.6-0.3-2.4L241,90.8c-0.6-3-4.2-9.6-8.2-8.7l-0.4,0.1c-3,0.6-4.6,3.7-4.1,6.7
			l4.5,18.9l0.6,1.6C235.6,114.9,243.6,115.4,244.6,109.5L244.6,109.5z"/>
	</g>
	<g>
		<g>
			<circle class="st9" cx="192.3" cy="50.4" r="1.3"/>
		</g>
	</g>
	<g>
		<g>
			<circle class="st9" cx="213.8" cy="49.4" r="1.3"/>
		</g>
	</g>
	<path class="st2" d="M241,90.8l-13.1,2.7l-2.7-22.9C225.1,70.5,239.1,78.4,241,90.8z"/>
	<g>
		<g>
			<path class="st5" d="M193,135.7l30-0.1l-0.7,1.8c-2.4,5.8-8,9.6-14.3,9.6l0,0c-6.2,0-11.9-3.8-14.3-9.5L193,135.7z"/>
		</g>
	</g>
</g>
<path class="st4" d="M135.4,263.5H76.1c-5.8,0-10.5-4.7-10.5-10.5V140.3c0-5.8,4.7-10.5,10.5-10.5h59.3c5.8,0,10.5,4.7,10.5,10.5
	V253C145.9,258.8,141.2,263.5,135.4,263.5z"/>
<g>
	<g>
		<g>
			<g>
				<circle class="st3" cx="101.8" cy="243.2" r="5.1"/>
			</g>
		</g>
		<g>
			<g>
				<rect x="93.5" y="143" class="st3" width="16.6" height="5.4"/>
			</g>
		</g>
	</g>
	<g>
		<g>
			<path class="st3" d="M135.1,232.6v17.9c0,3.9-3.2,7.1-7.1,7.1H75.6c-3.9,0-7.1-3.2-7.1-7.1V142.5c0-3.9,3.2-7.1,7.1-7.1h52.5
				c3.9,0,7.1,3.2,7.1,7.1v12.3c2.4,0.4,4.7,1.1,6.9,1.9v-14.1c0-7.7-6.3-13.9-13.9-13.9H75.6c-7.7,0-13.9,6.3-13.9,13.9v108.1
				c0,7.7,6.3,13.9,13.9,13.9h52.5c7.7,0,13.9-6.3,13.9-13.9v-19.8C139.8,231.6,137.5,232.2,135.1,232.6z"/>
		</g>
		<path class="st3" d="M165,193.4l-9.4-10.9c-0.2-0.2-0.5-0.2-0.7,0l-7.9,11.8c-0.2,0.3,0,0.7,0.4,0.7l5-0.3c-0.1,1.5-0.3,3-0.7,4.4
			c-1.7,6.3-5.8,11.6-11.5,14.9c-5.7,3.3-12.3,4.1-18.6,2.4c-6.3-1.7-11.6-5.8-14.9-11.5c-3.3-5.7-4.1-12.3-2.4-18.6
			c1.7-6.3,5.8-11.6,11.5-14.9c5.7-3.3,12.3-4.1,18.6-2.4c3.9,1.1,7.5,3,10.4,5.8l4.8-5.1c-3.7-3.5-8.3-6.1-13.3-7.4
			c-8.1-2.2-16.6-1.1-24,3.1c-7.3,4.2-12.6,11-14.8,19.1c-2.2,8.1-1.1,16.6,3.1,24c4.2,7.3,11,12.6,19.1,14.8
			c2.7,0.7,5.5,1.1,8.3,1.1c5.4,0,10.8-1.4,15.6-4.2c7.3-4.2,12.6-11,14.8-19.1c0.6-2.2,0.9-4.4,1-6.6l5.3-0.3
			C165,194.1,165.2,193.7,165,193.4z"/>
	</g>
	<path class="st3" d="M138.1,185.3v-4.6H119v4.6h0.2v0h6.9c1.6,0,2.9,0.9,3.7,2.1H119v4.6h10.8c-0.8,1.2-2.1,2.1-3.7,2.1h-4.6
		c-0.9,0-1.8,0.6-2.1,1.4c-0.4,0.9-0.2,1.8,0.5,2.5l11.9,11.8l3.2-3.2l-8-8c3.8-0.4,6.8-3.1,7.8-6.7h3.4v-4.6h-3.4
		c-0.2-0.8-0.5-1.5-0.9-2.1H138.1z"/>
</g>
</svg>
